<svg viewBox="0 0 1454 1454" xmlns="http://www.w3.org/2000/svg" xmlns:xlink="http://www.w3.org/1999/xlink" width="1454.000000" height="1454.000000" fill="none">
	<defs>
		<clipPath id="clipPath_2">
			<rect width="1045.000000" height="1045.000000" x="205.000000" y="204.000000" fill="rgb(255,255,255)" />
		</clipPath>
	</defs>
	<rect id="фрейм 2" width="1454.000000" height="1454.000000" x="0.000000" y="0.000000" />
	<rect id="Прямоугольник 13" width="1454.000000" height="1454.000000" x="0.000000" y="2.000000" rx="227.000000" fill="rgb(0,0,0)" />
	<g id="лого 1" clip-path="url(#clipPath_2)" customFrame="url(#clipPath_2)">
		<rect id="лого 1" width="1045.000000" height="1045.000000" x="205.000000" y="204.000000" />
		<path id="Форма 7" d="M582.458 451.409C540.063 412.179 543.017 385.35 523.877 337.021C470.227 201.547 262.364 231.528 252.794 373.887C250.076 414.314 252.157 458.764 251.607 499.627C250.907 551.938 247.249 606.764 251.577 659.101C255.422 705.627 290.4 756.327 333.963 774.757C369.154 789.647 403.465 780.848 438.432 794.874C542.833 836.757 523.581 945.711 524.45 1036.27C524.82 1074.7 526.378 1113.99 525.779 1152.2C525.071 1197.35 522.117 1234.98 468.651 1244.56L261.978 1244.69C232.141 1241.35 208.901 1219.3 205 1189.76L205 373.828C213.66 284.3 287.214 211.392 378.256 204.074L974.372 204C1263.27 225.743 1356.3 600.536 1101.37 748.932C1072.96 765.47 1050.51 769.884 1020.81 780.571C981.197 794.819 968.441 832.752 992.781 867.506C1014.27 898.181 1044.88 931.789 1069.2 961.256C1115.83 1017.76 1165.05 1072.62 1209.87 1130.55C1215.5 1137.82 1223.05 1146.5 1227.27 1154.47C1242.5 1183.22 1213.08 1230.39 1177.47 1243.49C1168.2 1246.9 1160.47 1247.34 1158.16 1247.44C1100.7 1249.93 1010.99 1248.78 986.173 1248.42C984.286 1248.35 981.429 1248.23 977.966 1247.98C958.796 1246.61 901.144 1242.54 864.657 1203.82C862.89 1201.94 861.216 1200 861.216 1200C860.086 1198.69 859.239 1197.64 858.674 1196.95C831.11 1162.94 616.552 906.584 569.814 847.646C549.09 821.511 528.501 797.53 518.998 764.875C471.545 601.833 684.778 492.357 796.184 625.316C811.206 643.243 841.889 694.305 864.44 698.117C880.607 700.85 894.277 691.859 898.246 676.477C904.39 652.67 903.39 569.322 896.239 545.85C886.564 514.089 858.532 497.429 826.194 495.361C740.88 489.904 652.413 516.158 582.45 451.413L582.458 451.409Z" fill="rgb(255,255,255)" fill-rule="nonzero" />
	</g>
</svg>
