<svg viewBox="0 0 1668 1668" xmlns="http://www.w3.org/2000/svg" xmlns:xlink="http://www.w3.org/1999/xlink" width="1668.000000" height="1668.000000" fill="none">
	<defs>
		<clipPath id="clipPath_0">
			<rect width="1668.000000" height="1668.000000" x="0.000000" y="0.000000" fill="rgb(255,255,255)" />
		</clipPath>
	</defs>
	<rect id="фрейм 2" width="1668.000000" height="1668.000000" x="0.000000" y="0.000000" />
	<g id="лого 1" clip-path="url(#clipPath_0)" customFrame="url(#clipPath_0)">
		<rect id="лого 1" width="1668.000000" height="1668.000000" x="0.000000" y="0.000000" />
		<path id="Форма 7" d="M602.488 394.908C534.818 332.29 539.533 289.465 508.983 212.324C423.348 -3.91513 91.5627 43.9389 76.2873 271.169C71.9485 335.698 75.2714 406.648 74.3928 471.872C73.2753 555.369 67.4364 642.881 74.345 726.42C80.4827 800.683 136.313 881.609 205.847 911.026C262.018 934.794 316.785 920.749 372.598 943.137C539.24 1009.99 508.51 1183.9 509.897 1328.45C510.489 1389.78 512.975 1452.51 512.018 1513.49C510.889 1585.55 506.174 1645.62 420.832 1660.91L90.9471 1661.12C43.3221 1655.79 6.22729 1620.6 0 1573.45L0 271.075C13.8232 128.173 131.227 11.7984 276.547 0.117925L1228.05 0C1689.18 34.7054 1837.67 632.94 1430.77 869.805C1385.42 896.203 1349.58 903.249 1302.17 920.306C1238.94 943.048 1218.58 1003.6 1257.43 1059.07C1291.73 1108.03 1340.59 1161.68 1379.41 1208.71C1453.84 1298.9 1532.4 1386.47 1603.95 1478.93C1612.93 1490.53 1624.98 1504.39 1631.72 1517.11C1656.03 1563.01 1609.06 1638.29 1552.23 1659.2C1537.43 1664.65 1525.1 1665.36 1521.41 1665.52C1429.68 1669.49 1286.5 1667.65 1246.89 1667.08C1243.87 1666.97 1239.31 1666.77 1233.79 1666.37C1203.19 1664.18 1111.17 1657.69 1052.93 1595.88C1050.11 1592.89 1047.43 1589.79 1047.43 1589.79C1045.63 1587.69 1044.28 1586.02 1043.38 1584.92C999.379 1530.63 656.908 1121.45 582.306 1027.37C549.227 985.655 516.363 947.376 501.196 895.253C425.452 635.01 765.808 460.268 943.632 672.492C967.609 701.107 1016.58 782.611 1052.58 788.696C1078.39 793.059 1100.2 778.707 1106.54 754.155C1116.35 716.154 1114.75 583.117 1103.34 545.652C1087.89 494.956 1043.15 468.363 991.532 465.062C855.356 456.353 714.149 498.258 602.476 394.914L602.488 394.908Z" fill="rgb(0,0,0)" fill-rule="nonzero" />
	</g>
</svg>
